<svg xmlns="http://www.w3.org/2000/svg" viewBox="0 0 158.66 26.3"><defs><style>.cls-1{fill:#00a89d;stroke:#fff;stroke-miterlimit:10;}.cls-2{fill:#eb7b00;}</style></defs><title>Asset 2</title><g id="Layer_2" data-name="Layer 2"><g id="Layer_1-2" data-name="Layer 1"><path class="cls-1" d="M26.88,3.13H21.39A4.13,4.13,0,0,0,18,4.5l-4.21,6.15L9.54,4.5c-.47-.68-2.16-1.37-4.12-1.37H1.07l7.64,9.1a7.82,7.82,0,0,0,4.92,1.36c2.65,0,4.39-.47,5.12-1.36l4.74-5.76v5.76c0,.65,1.12,1.36,3.39,1.36s3.79-.69,3.79-1.36V4.5C30.67,3.79,29.34,3.13,26.88,3.13ZM125.08,11c-1.39,0-2.2-.48-2.2-1.78V4.5c0-.72-1.35-1.37-3.6-1.37s-3.58.1-3.58,1.37v6.71H103.88c-1.21,0-1.73-.16-1.73-1.12v-1H111c1.29,0,2.38.06,2.38-1V7h-9.48c-1.21,0-1.73-.16-1.73-.9V5.37h9.51c1.22,0,2.56-.39,2.56-.87V3.13H87a1,1,0,0,1-1-1V1.86C86,1.22,84.74.5,82.65.5S78.82,1,78.82,1.86l-.09.59.07-.36a1,1,0,0,1-1,1H69.16a1,1,0,0,1-1-1h0l0-.23c0-.64-1.27-1.36-3.34-1.36S60.92,1,60.92,1.86v.23a1,1,0,0,1-1,1H34.5c-1.29,0-2,.44-2,1.37v7.73c0,.67.85,1.36,2.93,1.36H49.63c1.1,0,2.49-.67,2.49-1.39v-1H41.37c-1,0-1.66-.23-1.66-1.16V9.13h8.77c1.05,0,2.43,0,2.43-1V7H41.42c-1,0-1.71-.07-1.71-.69V5.72H57.6c1.81,0,3.32.56,3.32,2.39v4.12c0,.63,1.7,1.36,3.69,1.36s3.5-.7,3.5-1.36V8.11A2.62,2.62,0,0,1,71,5.72h4.93c1.64,0,2.88.74,2.88,2.3v4.21c0,.63,1.27,1.36,3.35,1.36S86,13.06,86,12.23V8a2.79,2.79,0,0,1,2.57-2.3h3.72A2.5,2.5,0,0,1,95,8.11v4.12c0,.63.6,1.36,2.16,1.36h34.08c1.56,0,2.83-.61,2.83-1.36V11Z"/><path class="cls-2" d="M61.39,26.11V17.79h2.87a2.89,2.89,0,0,1,1,.16,2.12,2.12,0,0,1,.7.41,2,2,0,0,1,.43.56,3.19,3.19,0,0,1,.22.6,2.64,2.64,0,0,1,.06.55,1.8,1.8,0,0,1-.3,1,1.92,1.92,0,0,1-.82.69,2.41,2.41,0,0,1,1.13.77,2,2,0,0,1,.41,1.27,2.15,2.15,0,0,1-.7,1.63,2.62,2.62,0,0,1-1.87.66ZM63,19.33V21.2h.89a1.11,1.11,0,0,0,.77-.27.86.86,0,0,0,.3-.67.84.84,0,0,0-.3-.66,1.11,1.11,0,0,0-.77-.27Zm0,3.15v2.09h.84A2,2,0,0,0,65,24.32a1.1,1.1,0,0,0,0-1.59,2,2,0,0,0-1.14-.25Z"/><path class="cls-2" d="M73.47,19.75v6.36l-1.45.1V25.4h0a2.1,2.1,0,0,1-.8.71,2.6,2.6,0,0,1-1.09.19,2.11,2.11,0,0,1-1.54-.57A2.08,2.08,0,0,1,68,24.18V20l1.54-.2v4a1.39,1.39,0,0,0,.25.86.84.84,0,0,0,.74.34,1.31,1.31,0,0,0,1.06-.44,1.68,1.68,0,0,0,.36-1.08V20Z"/><path class="cls-2" d="M74.32,25.31l1-.95a1.87,1.87,0,0,0,1.39.66,1,1,0,0,0,.62-.2.56.56,0,0,0,.25-.43.53.53,0,0,0-.32-.48,3.34,3.34,0,0,0-.76-.3,7.91,7.91,0,0,1-.9-.3,1.69,1.69,0,0,1-.75-.59,1.74,1.74,0,0,1-.32-1.07,1.63,1.63,0,0,1,.67-1.4,2.58,2.58,0,0,1,1.59-.5,2.93,2.93,0,0,1,2.28,1l-1,.9A1.63,1.63,0,0,0,76.86,21c-.5,0-.74.21-.74.64a.48.48,0,0,0,.31.43,3.68,3.68,0,0,0,.76.28,7.54,7.54,0,0,1,.89.27,1.71,1.71,0,0,1,.77.57,1.62,1.62,0,0,1,.31,1,1.73,1.73,0,0,1-.75,1.52,3,3,0,0,1-1.77.52A2.9,2.9,0,0,1,74.32,25.31Z"/><path class="cls-2" d="M80.86,17.27l1,1-1,1-1-1Zm-.8,8.94V20l1.54-.15v6.31Z"/><path class="cls-2" d="M82.8,26.21V20l1.46-.15v.85h0a2.14,2.14,0,0,1,.8-.7,2.62,2.62,0,0,1,1.09-.2,2.11,2.11,0,0,1,1.54.58,2.07,2.07,0,0,1,.58,1.55v4.23l-1.54.1V22.29a1.37,1.37,0,0,0-.25-.86.84.84,0,0,0-.74-.34,1.29,1.29,0,0,0-1.06.44,1.65,1.65,0,0,0-.36,1.07v3.51Z"/><path class="cls-2" d="M94.52,24.17l.65,1.32a4.46,4.46,0,0,1-2.58.81,3.34,3.34,0,0,1-2.4-.95,3.15,3.15,0,0,1,0-4.64,3.35,3.35,0,0,1,2.4-1,3.11,3.11,0,0,1,1.73.52,3.3,3.3,0,0,1,1.2,1.39L91.3,24.28a1.2,1.2,0,0,0,1.2.62A3.82,3.82,0,0,0,94.52,24.17Zm-3.83-1,2.89-1.75A1.46,1.46,0,0,0,92.5,21a1.71,1.71,0,0,0-1.24.51,1.89,1.89,0,0,0-.59,1.22A4.19,4.19,0,0,0,90.69,23.19Z"/><path class="cls-2" d="M95.89,25.31l1-.95a1.89,1.89,0,0,0,1.4.66,1,1,0,0,0,.61-.2.51.51,0,0,0-.07-.91,3.17,3.17,0,0,0-.76-.3,7.16,7.16,0,0,1-.89-.3,1.66,1.66,0,0,1-.76-.59,1.74,1.74,0,0,1-.31-1.07,1.65,1.65,0,0,1,.66-1.4,2.62,2.62,0,0,1,1.59-.5,2.93,2.93,0,0,1,2.28,1l-1,.9A1.61,1.61,0,0,0,98.42,21c-.49,0-.74.21-.74.64a.49.49,0,0,0,.32.43,3.81,3.81,0,0,0,.75.28,7.69,7.69,0,0,1,.9.27,1.74,1.74,0,0,1,.76.57,1.62,1.62,0,0,1,.31,1,1.72,1.72,0,0,1-.74,1.52,3,3,0,0,1-1.78.52A2.87,2.87,0,0,1,95.89,25.31Z"/><path class="cls-2" d="M101.27,25.31l1-.95a1.87,1.87,0,0,0,1.39.66,1,1,0,0,0,.62-.2.55.55,0,0,0,.24-.43.52.52,0,0,0-.31-.48,3.34,3.34,0,0,0-.76-.3,7.91,7.91,0,0,1-.9-.3,1.69,1.69,0,0,1-.75-.59,1.74,1.74,0,0,1-.32-1.07,1.63,1.63,0,0,1,.67-1.4,2.58,2.58,0,0,1,1.59-.5,2.93,2.93,0,0,1,2.28,1l-1,.9a1.63,1.63,0,0,0-1.16-.62c-.5,0-.74.21-.74.64a.48.48,0,0,0,.31.43,3.68,3.68,0,0,0,.76.28,8.16,8.16,0,0,1,.89.27,1.69,1.69,0,0,1,.76.57,1.62,1.62,0,0,1,.32,1,1.73,1.73,0,0,1-.75,1.52,3,3,0,0,1-1.77.52A2.9,2.9,0,0,1,101.27,25.31Z"/><path class="cls-2" d="M110.05,25l1.1-1.14q.13.16.3.33a4,4,0,0,0,.32.29,1.37,1.37,0,0,0,.42.2,2,2,0,0,0,.57.07,1.07,1.07,0,0,0,.74-.28.86.86,0,0,0,.32-.68.84.84,0,0,0-.37-.72,3.21,3.21,0,0,0-.91-.44,10.45,10.45,0,0,1-1.06-.4,2.13,2.13,0,0,1-.91-.76,2.26,2.26,0,0,1-.37-1.34,2.36,2.36,0,0,1,.78-1.86,3.14,3.14,0,0,1,3.35-.37,2.59,2.59,0,0,1,1,.81l-1,1.17a3.11,3.11,0,0,0-.7-.54,1.63,1.63,0,0,0-.73-.22c-.71,0-1.07.34-1.07,1a.65.65,0,0,0,.27.54,1.74,1.74,0,0,0,.67.32,6.33,6.33,0,0,1,.87.29,6.52,6.52,0,0,1,.88.43,1.9,1.9,0,0,1,.67.79,2.91,2.91,0,0,1,.27,1.31,2.23,2.23,0,0,1-.82,1.8,3,3,0,0,1-2,.68A3.26,3.26,0,0,1,110.05,25Z"/><path class="cls-2" d="M117.17,25.35a3.15,3.15,0,0,1,0-4.64,3.48,3.48,0,0,1,4.8,0,3.15,3.15,0,0,1,0,4.64,3.51,3.51,0,0,1-4.8,0Zm1-3.64a1.79,1.79,0,0,0,0,2.64,2,2,0,0,0,1.38.55,2,2,0,0,0,1.38-.55,1.77,1.77,0,0,0,0-2.64,1.93,1.93,0,0,0-1.38-.55A2,2,0,0,0,118.19,21.71Z"/><path class="cls-2" d="M125.39,26.11l-1.54.1V17.79l1.54-.2Z"/><path class="cls-2" d="M132.09,19.75v6.36l-1.46.1V25.4h0a2.17,2.17,0,0,1-.8.71,2.66,2.66,0,0,1-1.09.19,2,2,0,0,1-2.13-2.12V20l1.54-.2v4a1.46,1.46,0,0,0,.25.86.87.87,0,0,0,.75.34,1.29,1.29,0,0,0,1.05-.44,1.63,1.63,0,0,0,.37-1.08V20Z"/><path class="cls-2" d="M133.68,20V18.88l1.54-.69V20h1.39v1.33h-1.39v2.63a1,1,0,0,0,.25.74,1.31,1.31,0,0,0,.9.25l.53,0-.37,1.38a2.33,2.33,0,0,1-.61.05,2.41,2.41,0,0,1-1.62-.53,1.9,1.9,0,0,1-.62-1.53v-3h-1l.34-1.33Z"/><path class="cls-2" d="M138.13,17.27l1,1-1,1-1-1Zm-.8,8.94V20l1.54-.15v6.31Z"/><path class="cls-2" d="M140.75,25.35a3.15,3.15,0,0,1,0-4.64,3.48,3.48,0,0,1,4.8,0,3.15,3.15,0,0,1,0,4.64,3.51,3.51,0,0,1-4.8,0Zm1-3.64a1.77,1.77,0,0,0,0,2.64,2,2,0,0,0,2.76,0,1.79,1.79,0,0,0,0-2.64,2,2,0,0,0-2.76,0Z"/><path class="cls-2" d="M147.48,26.21V20l1.45-.15v.85h0a2.14,2.14,0,0,1,.8-.7,2.62,2.62,0,0,1,1.09-.2,2.11,2.11,0,0,1,1.54.58,2.07,2.07,0,0,1,.58,1.55v4.23l-1.54.1V22.29a1.37,1.37,0,0,0-.25-.86.84.84,0,0,0-.74-.34,1.29,1.29,0,0,0-1.06.44A1.65,1.65,0,0,0,149,22.6v3.51Z"/><path class="cls-2" d="M153.82,25.31l1-.95a1.87,1.87,0,0,0,1.39.66,1,1,0,0,0,.62-.2.56.56,0,0,0,.25-.43.53.53,0,0,0-.32-.48,3.17,3.17,0,0,0-.76-.3,7.16,7.16,0,0,1-.89-.3,1.66,1.66,0,0,1-.76-.59,1.74,1.74,0,0,1-.32-1.07,1.63,1.63,0,0,1,.67-1.4,2.58,2.58,0,0,1,1.59-.5,2.93,2.93,0,0,1,2.28,1l-1,.9a1.63,1.63,0,0,0-1.16-.62c-.5,0-.74.21-.74.64a.48.48,0,0,0,.31.43,3.68,3.68,0,0,0,.76.28,7.54,7.54,0,0,1,.89.27,1.71,1.71,0,0,1,.77.57,1.62,1.62,0,0,1,.31,1,1.75,1.75,0,0,1-.74,1.52,3,3,0,0,1-1.78.52A2.9,2.9,0,0,1,153.82,25.31Z"/></g></g></svg>
